<svg width="693" height="624" viewBox="0 0 693 624" fill="none" xmlns="http://www.w3.org/2000/svg">
<path d="M445.613 128.396C446.34 130.478 447.451 132.349 448.869 133.879C450.288 135.409 451.978 136.56 453.822 137.252C455.666 137.943 457.618 138.157 459.541 137.88C461.464 137.602 463.312 136.839 464.953 135.645L501.699 169.795L503.974 141.557L468.73 113.457C466.816 110.396 463.999 108.255 460.813 107.439C457.627 106.623 454.294 107.19 451.444 109.031C448.595 110.872 446.428 113.861 445.353 117.43C444.278 120.999 444.371 124.901 445.613 128.396V128.396Z" fill="#9F616A"/>
<path d="M502.519 138.905L488.804 127.678L473.248 148.501L491.344 160.926L502.519 138.905Z" fill="#DBAD94"/>
<path d="M499.515 131.291L545.735 151.895L590.229 118.142C594.827 114.653 600.364 113.223 605.805 114.117C611.247 115.012 616.222 118.171 619.801 123.003C623.38 127.836 625.318 134.013 625.254 140.38C625.19 146.747 623.128 152.87 619.453 157.605L619.055 158.117L550.623 200.624L475.874 161.062L499.515 131.291Z" fill="#DBAD94"/>
<path d="M486.485 620.806H4.86765L22.3309 225.748H97.6985L167.197 282.184H503.949L486.485 620.806Z" fill="#DBAD94"/>
<path d="M368.589 500.332L90.2208 367.515C89.2476 367.05 88.4736 366.155 88.0687 365.029C87.6637 363.903 87.6609 362.637 88.0607 361.509L214.195 6.66834C214.597 5.54086 215.369 4.64421 216.341 4.17506C217.313 3.70592 218.406 3.70261 219.38 4.16587L497.748 136.982C498.721 137.448 499.495 138.342 499.9 139.468C500.305 140.594 500.308 141.861 499.908 142.989L373.774 497.829C373.372 498.957 372.6 499.853 371.628 500.323C370.656 500.792 369.563 500.795 368.589 500.332V500.332Z" fill="white"/>
<mask id="path-6-inside-1_0_1" fill="white">
<path d="M368.589 500.332L90.2208 367.515C89.2476 367.05 88.4736 366.155 88.0687 365.029C87.6637 363.903 87.6609 362.637 88.0607 361.509L214.195 6.66834C214.597 5.54086 215.369 4.64421 216.341 4.17506C217.313 3.70592 218.406 3.70261 219.38 4.16587L497.748 136.982C498.721 137.448 499.495 138.342 499.9 139.468C500.305 140.594 500.308 141.861 499.908 142.989L373.774 497.829C373.372 498.957 372.6 499.853 371.628 500.323C370.656 500.792 369.563 500.795 368.589 500.332V500.332ZM218.775 5.86774C218.19 5.58975 217.534 5.59171 216.951 5.8732C216.368 6.15469 215.905 6.69271 215.664 7.36923L89.5297 362.209C89.2898 362.887 89.2915 363.646 89.5344 364.322C89.7774 364.998 90.2418 365.534 90.8257 365.814L369.194 498.63C369.779 498.908 370.434 498.906 371.018 498.624C371.601 498.343 372.064 497.805 372.305 497.128L498.439 142.288C498.679 141.611 498.677 140.851 498.434 140.176C498.191 139.5 497.727 138.964 497.143 138.684L218.775 5.86774Z"/>
</mask>
<path d="M368.589 500.332L90.2208 367.515C89.2476 367.05 88.4736 366.155 88.0687 365.029C87.6637 363.903 87.6609 362.637 88.0607 361.509L214.195 6.66834C214.597 5.54086 215.369 4.64421 216.341 4.17506C217.313 3.70592 218.406 3.70261 219.38 4.16587L497.748 136.982C498.721 137.448 499.495 138.342 499.9 139.468C500.305 140.594 500.308 141.861 499.908 142.989L373.774 497.829C373.372 498.957 372.6 499.853 371.628 500.323C370.656 500.792 369.563 500.795 368.589 500.332V500.332ZM218.775 5.86774C218.19 5.58975 217.534 5.59171 216.951 5.8732C216.368 6.15469 215.905 6.69271 215.664 7.36923L89.5297 362.209C89.2898 362.887 89.2915 363.646 89.5344 364.322C89.7774 364.998 90.2418 365.534 90.8257 365.814L369.194 498.63C369.779 498.908 370.434 498.906 371.018 498.624C371.601 498.343 372.064 497.805 372.305 497.128L498.439 142.288C498.679 141.611 498.677 140.851 498.434 140.176C498.191 139.5 497.727 138.964 497.143 138.684L218.775 5.86774Z" fill="#3F3D56"/>
<path d="M90.2208 367.515L81.5856 385.555L81.597 385.561L81.6083 385.566L90.2208 367.515ZM88.0607 361.509L69.2159 354.81L69.2125 354.819L69.2091 354.829L88.0607 361.509ZM214.195 6.66834L195.357 -0.0497031L195.353 -0.0400397L195.35 -0.0303729L214.195 6.66834ZM219.38 4.16587L227.992 -13.8848L227.981 -13.8902L227.969 -13.8957L219.38 4.16587ZM497.748 136.982L506.383 118.942L506.372 118.937L506.361 118.932L497.748 136.982ZM499.908 142.989L518.753 149.688L518.756 149.678L518.76 149.668L499.908 142.989ZM373.774 497.829L392.612 504.547L392.615 504.538L392.619 504.528L373.774 497.829ZM218.775 5.86774L227.387 -12.1829L227.376 -12.1881L227.365 -12.1933L218.775 5.86774ZM215.664 7.36923L196.826 0.652082L196.822 0.661296L196.819 0.670514L215.664 7.36923ZM89.5297 362.209L70.6849 355.511L70.6816 355.52L70.6783 355.529L89.5297 362.209ZM90.8257 365.814L82.1915 383.854L82.2024 383.859L82.2133 383.864L90.8257 365.814ZM369.194 498.63L360.582 516.681L360.593 516.686L360.603 516.691L369.194 498.63ZM372.305 497.128L391.143 503.846L391.147 503.837L391.15 503.827L372.305 497.128ZM498.439 142.288L517.284 148.987L517.287 148.978L517.291 148.968L498.439 142.288ZM497.143 138.684L505.777 120.644L505.766 120.639L505.756 120.633L497.143 138.684ZM377.202 482.281L98.8332 349.465L81.6083 385.566L359.977 518.382L377.202 482.281ZM98.8559 349.476C103.166 351.539 105.726 355.029 106.889 358.262L69.2485 371.797C71.221 377.282 75.3287 382.56 81.5856 385.555L98.8559 349.476ZM106.889 358.262C108.047 361.482 108.054 364.967 106.912 368.188L69.2091 354.829C67.2682 360.307 67.2805 366.324 69.2485 371.797L106.889 358.262ZM106.906 368.207L233.04 13.3671L195.35 -0.0303729L69.2159 354.81L106.906 368.207ZM233.033 13.3864C231.88 16.6196 229.333 20.112 225.034 22.1868L207.647 -13.8367C201.404 -10.8236 197.314 -5.53792 195.357 -0.0497031L233.033 13.3864ZM225.034 22.1868C220.554 24.3492 215.291 24.368 210.79 22.2274L227.969 -13.8957C221.52 -16.9627 214.071 -16.9374 207.647 -13.8367L225.034 22.1868ZM210.767 22.2165L489.136 155.033L506.361 118.932L227.992 -13.8848L210.767 22.2165ZM489.113 155.022C484.803 152.959 482.243 149.47 481.08 146.236L518.72 132.701C516.748 127.215 512.64 121.937 506.383 118.942L489.113 155.022ZM481.08 146.236C479.922 143.015 479.915 139.53 481.056 136.31L518.76 149.668C520.701 144.191 520.688 138.174 518.72 132.701L481.08 146.236ZM481.063 136.29L354.929 491.131L392.619 504.528L518.753 149.688L481.063 136.29ZM354.936 491.111C356.089 487.878 358.636 484.386 362.935 482.311L380.322 518.334C386.565 515.321 390.655 510.035 392.612 504.547L354.936 491.111ZM362.935 482.311C367.415 480.148 372.678 480.13 377.179 482.27L360 518.393C366.448 521.46 373.897 521.435 380.322 518.334L362.935 482.311ZM227.365 -12.1933C221.306 -15.0755 214.294 -15.0518 208.258 -12.1385L225.645 23.8849C220.775 26.2353 215.075 26.255 210.184 23.9288L227.365 -12.1933ZM208.258 -12.1385C202.404 -9.31306 198.622 -4.38578 196.826 0.652082L234.502 14.0864C233.188 17.7712 230.332 21.6224 225.645 23.8849L208.258 -12.1385ZM196.819 0.670514L70.6849 355.511L108.375 368.908L234.509 14.0679L196.819 0.670514ZM70.6783 355.529C68.8971 360.556 68.9081 366.067 70.7142 371.089L108.355 357.554C109.675 361.226 109.682 365.217 108.381 368.89L70.6783 355.529ZM70.7142 371.089C72.5247 376.125 76.323 381.045 82.1915 383.854L99.4599 347.773C104.161 350.023 107.03 353.871 108.355 357.554L70.7142 371.089ZM82.2133 383.864L360.582 516.681L377.807 480.579L99.4381 347.763L82.2133 383.864ZM360.603 516.691C366.664 519.573 373.675 519.549 379.711 516.636L362.324 480.613C367.193 478.263 372.894 478.242 377.785 480.569L360.603 516.691ZM379.711 516.636C385.565 513.811 389.347 508.883 391.143 503.846L353.467 490.411C354.781 486.727 357.636 482.875 362.324 480.613L379.711 516.636ZM391.15 503.827L517.284 148.987L479.594 135.589L353.46 490.43L391.15 503.827ZM517.291 148.968C519.072 143.942 519.061 138.431 517.255 133.408L479.614 146.943C478.294 143.272 478.286 139.28 479.588 135.608L517.291 148.968ZM517.255 133.408C515.444 128.373 511.646 123.452 505.777 120.644L488.509 156.724C483.808 154.475 480.939 150.627 479.614 146.943L517.255 133.408ZM505.756 120.633L227.387 -12.1829L210.162 23.9184L488.531 156.735L505.756 120.633Z" fill="black" mask="url(#path-6-inside-1_0_1)"/>
<path d="M297.396 179.817L228.355 146.876C227.382 146.41 226.608 145.516 226.203 144.39C225.798 143.263 225.795 141.997 226.195 140.869L254.628 60.8807C255.03 59.7533 255.802 58.8566 256.774 58.3875C257.746 57.9183 258.839 57.915 259.813 58.3783L328.854 91.3195C329.827 91.7854 330.601 92.6794 331.006 93.8055C331.411 94.9316 331.414 96.1979 331.014 97.3264L302.581 177.314C302.179 178.442 301.407 179.339 300.435 179.808C299.463 180.277 298.37 180.28 297.396 179.817V179.817ZM259.208 60.0801C258.624 59.8021 257.968 59.8041 257.385 60.0856C256.801 60.3671 256.338 60.9051 256.097 61.5816L227.664 141.57C227.424 142.247 227.426 143.006 227.669 143.682C227.912 144.358 228.376 144.894 228.96 145.174L298.001 178.115C298.586 178.393 299.241 178.391 299.825 178.11C300.408 177.828 300.871 177.29 301.112 176.613L329.545 96.6255C329.785 95.9484 329.784 95.1887 329.541 94.513C329.298 93.8373 328.833 93.3009 328.249 93.0214L259.208 60.0801Z" fill="#F2F2F2"/>
<path d="M274.087 180.141L205.046 147.2C204.17 146.78 203.473 145.976 203.109 144.962C202.744 143.949 202.742 142.809 203.102 141.793L231.535 61.8055C231.896 60.7907 232.591 59.9837 233.466 59.5615C234.341 59.1393 235.324 59.1363 236.201 59.5533L305.242 92.4945C306.118 92.9138 306.815 93.7184 307.179 94.7319C307.544 95.7454 307.546 96.8851 307.186 97.9008L278.753 177.889C278.391 178.903 277.697 179.71 276.822 180.133C275.947 180.555 274.963 180.558 274.087 180.141Z" fill="#DBAD94"/>
<path d="M407.069 289.372L191.131 186.343C190.697 186.136 190.303 185.831 189.97 185.448C189.638 185.064 189.374 184.608 189.193 184.106C189.012 183.604 188.919 183.066 188.918 182.522C188.917 181.978 189.009 181.439 189.187 180.937C189.366 180.434 189.629 179.977 189.96 179.591C190.291 179.206 190.685 178.9 191.118 178.691C191.551 178.482 192.016 178.373 192.485 178.372C192.955 178.371 193.42 178.477 193.854 178.684L409.791 281.713C410.668 282.132 411.365 282.936 411.73 283.95C412.094 284.964 412.096 286.104 411.735 287.119C411.374 288.135 410.68 288.943 409.805 289.365C408.93 289.788 407.946 289.79 407.069 289.372V289.372Z" fill="#CCCCCC"/>
<path d="M345.544 290.869L181.755 212.722C181.321 212.515 180.926 212.21 180.593 211.827C180.261 211.443 179.997 210.987 179.816 210.485C179.636 209.983 179.542 209.445 179.541 208.901C179.54 208.357 179.632 207.818 179.811 207.315C179.989 206.813 180.252 206.355 180.583 205.97C180.914 205.585 181.308 205.279 181.741 205.07C182.174 204.861 182.639 204.752 183.109 204.751C183.578 204.75 184.043 204.856 184.477 205.063L348.266 283.211C349.143 283.629 349.84 284.434 350.205 285.448C350.569 286.462 350.571 287.602 350.21 288.617C349.849 289.633 349.155 290.441 348.28 290.863C347.405 291.285 346.421 291.288 345.544 290.869V290.869Z" fill="#CCCCCC"/>
<path d="M440.817 192.015L345.335 146.457C344.901 146.25 344.506 145.946 344.173 145.562C343.841 145.179 343.577 144.723 343.396 144.221C343.216 143.719 343.122 143.181 343.121 142.637C343.12 142.093 343.212 141.554 343.391 141.051C343.569 140.548 343.832 140.091 344.163 139.706C344.494 139.321 344.888 139.015 345.321 138.806C345.754 138.596 346.219 138.488 346.689 138.487C347.158 138.486 347.623 138.592 348.057 138.799L443.54 184.356C444.416 184.774 445.113 185.579 445.478 186.593C445.842 187.607 445.844 188.747 445.483 189.762C445.122 190.778 444.428 191.586 443.553 192.008C442.678 192.43 441.694 192.433 440.817 192.015V192.015Z" fill="#CCCCCC"/>
<path d="M407.611 207.024L335.958 172.837C335.081 172.418 334.384 171.614 334.019 170.6C333.655 169.586 333.653 168.446 334.014 167.43C334.375 166.415 335.069 165.607 335.944 165.185C336.819 164.762 337.804 164.76 338.68 165.178L410.333 199.366C411.21 199.784 411.907 200.589 412.272 201.602C412.636 202.616 412.638 203.756 412.277 204.772C411.916 205.787 411.222 206.595 410.347 207.018C409.472 207.44 408.488 207.442 407.611 207.024V207.024Z" fill="#CCCCCC"/>
<path d="M388.315 342.13L172.378 239.101C171.944 238.893 171.549 238.589 171.217 238.206C170.884 237.822 170.62 237.366 170.439 236.864C170.259 236.362 170.165 235.824 170.164 235.28C170.164 234.736 170.255 234.197 170.434 233.694C170.613 233.192 170.875 232.734 171.206 232.349C171.537 231.964 171.931 231.658 172.364 231.449C172.798 231.239 173.262 231.131 173.732 231.13C174.201 231.129 174.666 231.235 175.1 231.442L391.038 334.471C391.914 334.889 392.611 335.694 392.976 336.708C393.341 337.722 393.343 338.862 392.982 339.877C392.621 340.893 391.926 341.701 391.051 342.123C390.176 342.545 389.192 342.548 388.315 342.13V342.13Z" fill="#CCCCCC"/>
<path d="M326.79 343.628L163.001 265.48C162.567 265.273 162.172 264.968 161.84 264.585C161.507 264.201 161.243 263.745 161.062 263.243C160.882 262.741 160.788 262.203 160.788 261.659C160.787 261.115 160.878 260.576 161.057 260.073C161.236 259.571 161.498 259.113 161.829 258.728C162.161 258.343 162.554 258.037 162.987 257.828C163.421 257.619 163.885 257.51 164.355 257.509C164.824 257.508 165.289 257.614 165.723 257.821L329.513 335.969C329.947 336.176 330.341 336.48 330.674 336.864C331.006 337.248 331.27 337.704 331.451 338.206C331.631 338.708 331.725 339.246 331.726 339.79C331.727 340.334 331.635 340.872 331.457 341.375C331.278 341.878 331.015 342.335 330.684 342.721C330.353 343.106 329.959 343.412 329.526 343.621C329.093 343.83 328.628 343.938 328.159 343.94C327.689 343.941 327.224 343.835 326.79 343.628V343.628Z" fill="#CCCCCC"/>
<path d="M369.562 394.888L153.624 291.859C152.747 291.44 152.05 290.636 151.686 289.622C151.321 288.608 151.319 287.468 151.68 286.452C152.041 285.437 152.735 284.629 153.61 284.207C154.486 283.784 155.47 283.782 156.346 284.2L372.284 387.229C373.16 387.647 373.858 388.452 374.222 389.466C374.587 390.48 374.589 391.62 374.228 392.635C373.867 393.651 373.172 394.459 372.297 394.881C371.422 395.303 370.438 395.306 369.562 394.888Z" fill="#CCCCCC"/>
<path d="M360.185 421.267L144.247 318.238C143.37 317.819 142.673 317.015 142.309 316.001C141.944 314.987 141.942 313.847 142.303 312.832C142.664 311.816 143.359 311.008 144.234 310.586C145.109 310.163 146.093 310.161 146.969 310.579L362.907 413.608C363.341 413.816 363.736 414.12 364.068 414.503C364.401 414.887 364.665 415.343 364.845 415.845C365.026 416.347 365.119 416.885 365.12 417.429C365.121 417.973 365.03 418.512 364.851 419.015C364.672 419.517 364.41 419.975 364.078 420.36C363.747 420.745 363.354 421.051 362.92 421.26C362.487 421.469 362.023 421.578 361.553 421.579C361.084 421.58 360.619 421.474 360.185 421.267V421.267Z" fill="#CCCCCC"/>
<path d="M254.84 419.307C259.162 419.572 263.495 419.419 267.795 418.849C271.666 418.325 275.7 417.603 279.093 415.244C280.561 414.274 281.811 412.917 282.741 411.282C283.67 409.647 284.254 407.781 284.444 405.836C284.594 403.986 284.231 402.128 283.409 400.532C282.587 398.936 281.348 397.685 279.871 396.959C278.373 396.228 276.732 395.98 275.121 396.241C273.511 396.503 271.992 397.264 270.725 398.444C269.371 399.806 268.3 401.505 267.592 403.413C266.884 405.322 266.556 407.391 266.635 409.467C266.813 417.99 272.634 426.408 279.098 429.953C286.378 433.947 296.32 430.553 298.184 420.719C298.572 418.673 296.167 417.963 295.162 419.277C293.79 421.03 293.047 423.324 293.085 425.69C293.123 428.056 293.94 430.316 295.368 432.008C296.796 433.7 298.728 434.697 300.769 434.794C302.81 434.892 304.806 434.083 306.35 432.532L303.644 431.241C304.43 435.059 306.07 438.57 308.4 441.421C310.729 444.271 313.666 446.36 316.913 447.479C318.516 448.035 320.178 448.329 321.851 448.35C323.884 448.357 325.972 449.539 327.916 450.273L341.928 455.561C343.989 456.339 345.296 452.715 343.218 451.93L330.529 447.141C328.414 446.343 326.305 445.523 324.184 444.746C322.668 444.191 321.008 444.492 319.427 444.165C316.467 443.516 313.727 441.906 311.527 439.521C309.327 437.137 307.758 434.078 307.001 430.7C306.955 430.364 306.835 430.047 306.653 429.78C306.471 429.513 306.232 429.305 305.961 429.175C305.689 429.045 305.393 428.999 305.102 429.04C304.81 429.081 304.532 429.208 304.295 429.409C303.409 430.386 302.225 430.918 301.001 430.889C299.778 430.86 298.614 430.272 297.763 429.253C296.911 428.235 296.442 426.868 296.457 425.45C296.472 424.032 296.969 422.679 297.841 421.684L294.819 420.242C293.616 426.586 286.937 428.967 282.123 427.132C276.739 425.081 272.112 419.111 270.506 412.858C270.077 411.356 269.919 409.767 270.044 408.191C270.168 406.615 270.572 405.085 271.229 403.698C271.815 402.433 272.729 401.412 273.842 400.781C274.955 400.149 276.211 399.938 277.433 400.177C278.525 400.356 279.514 401.019 280.191 402.026C280.869 403.033 281.182 404.306 281.064 405.576C280.885 407.005 280.405 408.36 279.667 409.523C278.929 410.687 277.955 411.622 276.832 412.246C273.802 414.131 270.174 414.6 266.808 415.027C262.971 415.511 259.107 415.638 255.252 415.408C253.088 415.282 252.654 419.18 254.84 419.307L254.84 419.307Z" fill="#DBAD94"/>
<g filter="url(#filter0_d_0_1)">
<path d="M486.485 308.806V620.806H4.86765V252.369H80.2353L149.73 308.806H486.485Z" fill="#DBAD94"/>
<path d="M148.469 310.358L149.02 310.806H149.73H484.485V618.806H6.86765V254.369H79.5255L148.469 310.358Z" stroke="#F2C4AC" stroke-width="4"/>
</g>
<path d="M230.97 562.239H34.2793V580.341H230.97V562.239Z" fill="#DBAD94"/>
<path d="M132.625 527.099H34.2793V545.201H132.625V527.099Z" fill="#DBAD94"/>
<path d="M487.404 621.87H3.94838V251.304H80.5252L150.024 307.741H487.404V621.87ZM5.78662 619.741H485.566V309.87H149.443L79.9451 253.433H5.78662V619.741Z" fill="#3F3D56"/>
<path d="M682.61 584.213L666.314 590.96L636.095 521.347L660.147 511.388L682.61 584.213Z" fill="#9F616A"/>
<path d="M639.866 622.55L639.628 621.78C637.697 615.495 637.996 608.579 640.46 602.549C642.924 596.519 647.352 591.868 652.772 589.615L684.866 576.327L692.413 600.793L639.866 622.55Z" fill="#2F2E41"/>
<path d="M576.64 602.886H559.334L551.101 525.551L576.642 525.552L576.64 602.886Z" fill="#9F616A"/>
<path d="M581.053 622.322L525.251 622.32V621.502C525.251 618.197 525.813 614.925 526.905 611.872C527.996 608.819 529.596 606.046 531.613 603.709C533.63 601.372 536.024 599.519 538.66 598.254C541.295 596.99 544.119 596.339 546.971 596.339H546.973L581.054 596.341L581.053 622.322Z" fill="#2F2E41"/>
<path d="M616.08 108.813L608.554 91.583C608.554 91.583 580.516 99.7214 577.967 118.548L616.08 108.813Z" fill="#DBAD94"/>
<path d="M647.135 305.822L626.667 438.149L681.014 549.499L648.547 564.217L593.494 456.28L586.437 426.843L582.201 580.571L552.921 579.542L539.495 435.996L561.028 302.552L647.135 305.822Z" fill="#2F2E41"/>
<path d="M642.899 246.038L642.191 168.441C642.191 135.555 623.509 111.315 620.92 109.073C619.701 104.568 617.515 101.453 614.424 99.8236C608.196 96.5536 600.58 100.478 600.258 100.654L577.409 110.578L577.302 110.941C577.059 111.772 554.005 199.418 548.217 221.415C547.392 224.57 546.918 226.377 546.918 226.377C546.918 226.377 547.007 231.463 547.168 239.373C547.679 266.571 548.889 327.154 549.373 329.697C549.373 329.697 591.575 337.109 608.286 337.109C638.348 337.109 657.442 330.445 657.872 330.331L658.562 330.164L642.899 246.038Z" fill="#DBAD94"/>
<path d="M599.994 81.7725C614.963 72.2921 620.465 50.5476 612.282 33.2048C604.099 15.8619 585.33 9.48816 570.361 18.9685C555.391 28.4489 549.89 50.1934 558.073 67.5362C566.256 84.8791 585.024 91.2529 599.994 81.7725Z" fill="#9F616A"/>
<path opacity="0.2" d="M588.6 229.615L547.168 239.373C547.007 231.463 546.918 226.377 546.918 226.377C546.918 226.377 547.392 224.57 548.217 221.415L588.6 229.615Z" fill="black"/>
<path d="M465.906 219.387C467.377 220.848 469.107 221.918 470.973 222.521C472.84 223.125 474.798 223.246 476.71 222.878C478.622 222.509 480.44 221.659 482.038 220.389C483.635 219.118 484.973 217.456 485.956 215.522L532.141 226.27L522.953 199.983L480.504 193.806C477.589 192.107 474.238 191.706 471.085 192.679C467.932 193.652 465.197 195.931 463.398 199.084C461.598 202.237 460.86 206.046 461.322 209.788C461.784 213.53 463.415 216.945 465.906 219.387V219.387Z" fill="#9F616A"/>
<path d="M520.609 198.403L503.974 195.74L498.426 222.519L519.426 223.912L520.609 198.403Z" fill="#DBAD94"/>
<path d="M514.92 193.242L564.141 186.916L590.255 133.239C592.954 127.692 597.303 123.472 602.49 121.367C607.678 119.263 613.349 119.417 618.445 121.802C623.541 124.187 627.714 128.64 630.184 134.328C632.655 140.016 633.254 146.552 631.869 152.714L631.719 153.381L587.822 227.584L505.742 232.273L514.92 193.242Z" fill="#DBAD94"/>
<path d="M611.488 81.4423L585.85 82.5085C584.287 82.5735 580.045 63.0331 579.49 58.9795C579.051 56.3405 577.798 53.9767 575.965 52.3297C574.132 50.6827 571.844 49.8651 569.529 50.0297C567.609 50.2397 562.77 46.0856 557.776 41.1667C548.295 31.8281 548.788 14.2889 559.203 6.39778C559.488 6.18211 559.767 5.98518 560.041 5.807C566.612 1.54642 574.298 0.115664 581.827 0.00655973C588.652 -0.0923432 595.67 0.902907 601.683 4.64559C612.463 11.3554 618.2 26.0183 618.704 40.1835C619.208 54.3487 615.288 68.1997 610.84 81.4073" fill="#2F2E41"/>
<defs>
<filter id="filter0_d_0_1" x="0.867645" y="252.369" width="489.618" height="376.437" filterUnits="userSpaceOnUse" color-interpolation-filters="sRGB">
<feFlood flood-opacity="0" result="BackgroundImageFix"/>
<feColorMatrix in="SourceAlpha" type="matrix" values="0 0 0 0 0 0 0 0 0 0 0 0 0 0 0 0 0 0 127 0" result="hardAlpha"/>
<feOffset dy="4"/>
<feGaussianBlur stdDeviation="2"/>
<feComposite in2="hardAlpha" operator="out"/>
<feColorMatrix type="matrix" values="0 0 0 0 0 0 0 0 0 0 0 0 0 0 0 0 0 0 0.25 0"/>
<feBlend mode="normal" in2="BackgroundImageFix" result="effect1_dropShadow_0_1"/>
<feBlend mode="normal" in="SourceGraphic" in2="effect1_dropShadow_0_1" result="shape"/>
</filter>
</defs>
</svg>
